<mxfile host="app.diagrams.net" modified="2024-04-11T13:19:22.957Z" agent="Mozilla/5.0 (Windows NT 10.0; Win64; x64) AppleWebKit/537.36 (KHTML, like Gecko) Chrome/123.0.0.0 Safari/537.36" version="24.2.3" etag="8Zyi89EhwPz_aRfXBoAF" type="github">
  <diagram name="Pagina-1" id="k9Wyd6RUeeqQn9df7I54">
    <mxGraphModel>
      <root>
        <mxCell id="0" />
        <mxCell id="1" parent="0" />
      </root>
    </mxGraphModel>
  </diagram>
</mxfile>
